HIERARCHY
ROOT Hips
{
  OFFSET 37.8982 90.5175 344.982
  CHANNELS 6 Xposition Yposition Zposition Zrotation Xrotation Yrotation
  JOINT RightUpLeg
  {
    OFFSET -8.9458 -8.66707 0.101652
    CHANNELS 3 Zrotation Xrotation Yrotation
    JOINT RightLeg
    {
      OFFSET 0 -44.4227 1.3727
      CHANNELS 3 Zrotation Xrotation Yrotation
      JOINT RightFoot
      {
        OFFSET 0.253549 -42.0924 -1.46059
        CHANNELS 3 Zrotation Xrotation Yrotation
        JOINT RightToes
        {
          OFFSET 0.04 -4.41509 8.4991
          CHANNELS 3 Zrotation Xrotation Yrotation
          End Site
          {
            OFFSET -0.08 -0.137448 9.77979
          }
        }
      }
    }
  }
  JOINT Spine
  {
    OFFSET 0 11.8905 0
    CHANNELS 3 Zrotation Xrotation Yrotation
    JOINT Spine1
    {
      OFFSET 0 25.6574 0.127663
      CHANNELS 3 Zrotation Xrotation Yrotation
      JOINT HEad
      {
        OFFSET 0 8.73416 0.011341
        CHANNELS 3 Zrotation Xrotation Yrotation
        End Site
        {
          OFFSET -0.29 12.7742 2.51395
        }
      }
      JOINT LeftShoulder1
      {
        OFFSET 8.99 -0.362252 -0.22
        CHANNELS 3 Zrotation Xrotation Yrotation
        JOINT LeftArm
        {
          OFFSET 10.2827 -0.00338 0.322123
          CHANNELS 3 Zrotation Xrotation Yrotation
          JOINT LeftForeArm
          {
            OFFSET 32.7669 0.099144 -1.42434
            CHANNELS 3 Zrotation Xrotation Yrotation
            JOINT LeftHand
            {
              OFFSET 27.5643 0.085362 1.02216
              CHANNELS 3 Zrotation Xrotation Yrotation
              End Site
              {
                OFFSET 16.7443 -0.6 1.50291
              }
            }
          }
        }
      }
      JOINT RightShoulder
      {
        OFFSET -8.99 -0.362252 -0.22
        CHANNELS 3 Zrotation Xrotation Yrotation
        JOINT RightArm
        {
          OFFSET -10.2827 -0.00338 0.322123
          CHANNELS 3 Zrotation Xrotation Yrotation
          JOINT RightForeArm
          {
            OFFSET -32.8971 0.099144 -1.42434
            CHANNELS 3 Zrotation Xrotation Yrotation
            JOINT RightHand
            {
              OFFSET -27.4921 0.085362 1.02216
              CHANNELS 3 Zrotation Xrotation Yrotation
              End Site
              {
                OFFSET -16.6312 -0.6 1.50291
              }
            }
          }
        }
      }
    }
  }
  JOINT LeftUpLeg
  {
    OFFSET 8.9458 -8.66707 0.101652
    CHANNELS 3 Zrotation Xrotation Yrotation
    JOINT LeftLeg
    {
      OFFSET 0 -44.4227 1.3727
      CHANNELS 3 Zrotation Xrotation Yrotation
      JOINT LeftFoot
      {
        OFFSET -0.253549 -42.0924 -1.46059
        CHANNELS 3 Zrotation Xrotation Yrotation
        JOINT LeftToes
        {
          OFFSET -0.04 -4.41509 8.4991
          CHANNELS 3 Zrotation Xrotation Yrotation
          End Site
          {
            OFFSET 0.08 -0.047448 9.77979
          }
        }
      }
    }
  }
}
MOTION
Frames:	8
Frame Time:	0.0166667
38.9812 91.9605 342.984 -16.2907 -4.48996 -70.6224 -19.0123 8.23084 10.5598 28.2405 36.4439 -49.7063 -27.0139 -0.626973 -0.81142 0.0462048 0.000533403 0.662642 -5.30625 32.5159 -4.93467 0.0467789 0.0890399 -0.0484812 -0.0205682 1.96 1.62177 -6.62086e-032 2.38542e-015 1.59028e-015 -140.403 -59.7686 -106.978 -63.6011 52.4656 -42.7789 14.2176 15.2192 -16.4436 19.6609 9.204 -5.71921 106.209 -7.25105 74.8831 15.4927 55.672 98.6327 16.0886 17.3801 -3.61557 33.1732 -20.8414 -10.5334 -54.8496 27.2139 69.1801 -16.0406 -9.14168 -5.98372 -2.02643e-009 1.56019e-007 -4.87105e-009 
38.8166 91.4775 343.304 -17.3887 -3.69643 -73.1448 -18.517 7.32245 11.8979 29.4177 36.9116 -51.3151 -28.2594 -0.0770531 -0.763625 0.0462048 0.000533403 0.662642 -3.6545 33.9776 -6.44734 -0.00661939 0.00841002 0.0249102 -0.933654 0.399778 5.17666 1.59028e-015 5.36719e-015 -0 -149.392 -60.9319 -116.315 -66.7879 53.5847 -40.4984 15.2674 15.6868 -16.1908 18.1452 9.10349 -2.26754 106.438 -5.99046 76.2685 14.0885 55.8673 99.4282 16.0369 16.774 -3.24443 32.4235 -20.0061 -13.8633 -54.7114 22.0384 68.7227 11.4532 -11.9057 -2.21762 -2.02642e-009 1.56019e-007 -4.87105e-009 
38.4509 90.8496 344.05 -18.3127 -2.8541 -75.3886 -18.5294 6.27458 13.0689 30.5572 38.2425 -52.4516 -28.3133 0.168525 -0.651978 0.0462048 0.000533403 0.662642 -1.92768 34.7652 -7.86768 -0.0128993 0.00734003 0.0279203 -1.72562 -0.642741 8.37629 -3.03456e-032 2.18663e-015 7.95139e-016 -157.945 -61.696 -125.123 -70.1171 54.6728 -38.2292 15.329 15.3486 -16.8676 16.6279 9.23721 0.65082 106.631 -5.28561 76.8784 13.2977 55.9091 99.538 15.4617 16.2871 -4.52005 33.8566 -17.224 -18.9028 -53.5841 16.8077 65.7411 -15.7659 -12.4947 -5.4607 -2.02641e-009 1.56019e-007 -4.87105e-009 
37.8982 90.5175 344.982 -19.082 -1.98925 -77.4099 -18.5694 5.55374 13.9816 30.9429 39.3079 -52.5186 -28.1888 0.737317 -0.544945 0.0462048 0.000533403 0.662642 -0.178252 34.9641 -9.0745 -0.0151202 0.00669196 0.0267604 -2.38905 -1.14614 11.1335 7.95139e-016 6.85807e-015 7.95139e-016 -165.364 -62.2563 -132.74 -73.2478 55.7198 -36.234 16.1051 15.5787 -16.7458 15.2106 9.60075 2.92148 106.818 -4.87704 76.9858 12.8356 55.882 99.3932 15.5538 16.6776 -3.29455 33.8193 -16.8506 -22.7938 -52.5727 12.3689 66.4672 -7.64742 -12.8194 -4.33756 -2.02642e-009 1.56019e-007 -4.87105e-009 
37.0757 90.1348 346.193 -19.7076 -1.12387 -79.2434 -18.8519 4.90601 14.7392 31.3998 40.6108 -52.2514 -27.7687 1.10076 -0.460167 0.0462048 0.000533403 0.662642 1.54812 34.6537 -9.99732 -0.0160459 0.00610244 0.0237717 -2.94527 -1.16842 13.4377 0 1.45051e-015 -0 -170.761 -62.6525 -138.486 -75.0359 55.5656 -34.8129 16.2696 15.6259 -16.9519 13.9029 10.1645 4.58133 107.019 -4.64531 76.804 12.5844 55.8026 99.1357 15.3816 16.9242 -3.44807 34.1115 -16.2431 -26.4781 -51.2104 8.77968 67.2794 -9.55275 -13.4603 -4.11026 -2.02643e-009 1.56019e-007 -4.87107e-009 
36.0522 89.8247 347.567 -20.1927 -0.278444 -80.905 -19.2228 4.47808 15.3217 31.6091 41.7765 -51.459 -27.2156 1.48066 -0.391808 0.0462048 0.000533403 0.662642 3.21204 33.9076 -10.6074 -0.0159559 0.00556878 0.0204913 -3.40402 -0.775334 15.2927 3.97569e-016 1.14301e-015 -1.98785e-016 -174.988 -63.2177 -142.956 -76.4962 55.495 -33.7039 16.8707 15.9328 -16.6284 12.6958 10.9052 5.66442 107.251 -4.51119 76.4687 12.472 55.7059 98.8885 15.6164 17.4871 -2.34328 34.1354 -16.3034 -29.6653 -50.0876 6.37264 69.1851 -7.55414 -14.0807 -3.39816 -2.02642e-009 1.56019e-007 -4.87105e-009 
34.8569 89.5162 349.065 -20.5365 0.527907 -82.4 -19.6934 4.20585 15.75 31.7 42.848 -50.3319 -26.5352 1.76721 -0.340826 0.0462048 0.000533403 0.662642 4.7754 32.7973 -10.8996 -0.0151296 0.00508833 0.0171399 -3.76054 -0.035584 16.7082 -9.93923e-017 1.31074e-015 -0 -178.2 -63.9879 -146.288 -77.729 55.5204 -32.7906 17.1682 15.8815 -16.6064 11.5782 11.8006 6.24047 107.528 -4.45506 76.0955 12.4852 55.5928 98.6372 15.729 17.8718 -2.24871 34.1024 -16.6074 -32.4963 -48.9899 4.99714 71.423 -8.33549 -14.5228 -3.24564 -2.02642e-009 1.56019e-007 -4.87106e-009 
33.5477 89.2531 350.623 -20.7376 1.27794 -83.7299 -20.212 4.10211 16.0232 31.5731 43.6828 -48.8566 -25.7952 2.01127 -0.305791 0.0462048 0.000533403 0.662642 6.19125 31.3925 -10.8784 -0.0138462 0.00465841 0.0132301 -3.99364 0.980653 17.6991 9.93923e-017 -2.13694e-015 3.97569e-016 179.615 -64.9739 -148.479 -78.71 55.6218 -32.0501 17.714 15.9365 -16.2552 10.5411 12.8245 6.34993 107.867 -4.43747 75.7468 12.6012 55.4808 98.3937 16.0958 18.3519 -1.49576 33.8208 -17.2739 -34.9258 -48.1028 4.59004 74.0806 -8.33954 -14.8639 -3.12073 -2.02642e-009 1.56019e-007 -4.87107e-009 
